<svg width="16.000000" height="12.000000" viewBox="0 0 16 12" fill="none" xmlns="http://www.w3.org/2000/svg" xmlns:xlink="http://www.w3.org/1999/xlink">
	<desc>
			Created with Pixso.
	</desc>
	<defs/>
	<path d="M1.5 0L14.5 0C15.3125 0 16 0.6875 16 1.5L16 10.5C16 11.3438 15.3125 12 14.5 12L1.5 12C0.65625 12 0 11.3438 0 10.5L0 1.5C0 0.6875 0.65625 0 1.5 0ZM14.5 2.78125L14.5 1.5L1.5 1.5L1.5 2.78125C2.1875 3.375 3.3125 4.25 5.6875 6.125C5.78529 6.19978 5.90003 6.29469 6.02684 6.39958C6.58889 6.86447 7.38806 7.5255 8 7.5C8.58319 7.52536 9.37212 6.87177 9.93276 6.40732C10.0631 6.29936 10.1811 6.20162 10.2812 6.125C12.6562 4.25 13.7812 3.375 14.5 2.78125ZM1.5 4.71875L1.5 10.5L14.5 10.5L14.5 4.71875C13.7812 5.28125 12.75 6.09375 11.2188 7.3125C11.0936 7.405 10.9542 7.51739 10.8025 7.63978C10.0827 8.22032 9.08397 9.02581 8 9C6.84899 9.02677 5.78969 8.15933 5.07742 7.57607C4.95815 7.4784 4.84861 7.3887 4.75 7.3125C3.21875 6.09375 2.1875 5.28125 1.5 4.71875Z" fill="#363838" fill-opacity="1.000000" fill-rule="evenodd"/>
</svg>
