<svg width="14.000000" height="14.000000" viewBox="0 0 14 14" fill="none" xmlns="http://www.w3.org/2000/svg" xmlns:xlink="http://www.w3.org/1999/xlink">
	<desc>
			Created with Pixso.
	</desc>
	<defs/>
	<path d="M12.8281 1.17188C13.6406 1.98438 13.8906 2.98438 13.9531 4.10938C14.0156 5.26562 14.0156 8.73438 13.9531 9.89062C13.8906 11.0156 13.6406 11.9844 12.8281 12.8281C12.0156 13.6406 11.0156 13.8906 9.89062 13.9531C8.73438 14.0156 5.26562 14.0156 4.10938 13.9531C2.98438 13.8906 2.01562 13.6406 1.17188 12.8281C0.359375 11.9844 0.109375 11.0156 0.046875 9.89062C-0.015625 8.73438 -0.015625 5.26562 0.046875 4.10938C0.109375 2.98438 0.359375 1.98438 1.17188 1.17188C2.01562 0.359375 2.98438 0.109375 4.10938 0.046875C5.26562 -0.015625 8.73438 -0.015625 9.89062 0.046875C11.0156 0.109375 12.0156 0.359375 12.8281 1.17188ZM11.1406 12.4531C11.7344 12.2031 12.2344 11.7344 12.4531 11.1094C12.7718 10.3393 12.752 8.64404 12.7388 7.51925C12.7365 7.32036 12.7344 7.13932 12.7344 6.98438C12.7344 6.83511 12.7365 6.6594 12.7388 6.46533C12.7519 5.35921 12.7722 3.65694 12.4531 2.85938C12.2031 2.26562 11.7344 1.76562 11.1406 1.54688C10.3431 1.22785 8.64079 1.24808 7.53467 1.26123C7.3406 1.26354 7.16489 1.26562 7.01562 1.26562C6.86068 1.26562 6.67964 1.26351 6.48075 1.26118C5.35596 1.24804 3.66071 1.22822 2.89062 1.54688C2.26562 1.79688 1.79688 2.26562 1.54688 2.85938C1.22785 3.65694 1.24808 5.35921 1.26123 6.46533C1.26354 6.6594 1.26562 6.83511 1.26562 6.98438C1.26562 7.13932 1.26351 7.32036 1.26118 7.51925C1.24804 8.64404 1.22822 10.3393 1.54688 11.1094C1.79688 11.7344 2.26562 12.2031 2.89062 12.4531C3.66071 12.7718 5.35596 12.752 6.48075 12.7388C6.67964 12.7365 6.86068 12.7344 7.01562 12.7344C7.16489 12.7344 7.3406 12.7365 7.53467 12.7388C8.64079 12.7519 10.3431 12.7722 11.1406 12.4531ZM10.7344 2.42188C11.2031 2.42188 11.5781 2.79688 11.5781 3.26562C11.5781 3.73438 11.2031 4.10938 10.7344 4.10938C10.2656 4.10938 9.89062 3.73438 9.89062 3.26562C9.89062 2.79688 10.2656 2.42188 10.7344 2.42188ZM3.42188 6.98438C3.42188 5.01562 5.01562 3.39062 7.01562 3.39062C8.98438 3.39062 10.6094 5.01562 10.6094 6.98438C10.6094 8.98438 8.98438 10.5781 7.01562 10.5781C5.01562 10.5781 3.42188 8.98438 3.42188 6.98438ZM4.67188 6.98438C4.67188 8.29688 5.73438 9.32812 7.01562 9.32812C8.29688 9.32812 9.32812 8.29688 9.32812 6.98438C9.32812 5.70312 8.29688 4.67188 7.01562 4.67188C5.70312 4.67188 4.67188 5.70312 4.67188 6.98438Z" fill="#707070" fill-opacity="1.000000" fill-rule="evenodd"/>
</svg>
